<svg width="250" height="112" viewBox="0 0 250 112" fill="none" xmlns="http://www.w3.org/2000/svg">
<path d="M67.4906 60.0401L67.6296 60.2138C67.7989 60.4255 67.782 60.7305 67.5904 60.9222C67.0469 61.3569 66.3672 61.5855 65.6715 61.5674L40.8296 60.9222L27.1967 60.0806L66.8746 59.7472C67.114 59.7452 67.341 59.8532 67.4906 60.0401Z" fill="black"/>
<path d="M61.1637 49.0554L63.1228 50.9056C63.1813 50.9608 63.2144 51.0376 63.2144 51.118C63.2144 51.2438 63.1339 51.3555 63.0145 51.3953L62.8085 51.464C62.743 51.4858 62.6742 51.4961 62.6051 51.4943L43.5225 50.9921L27.8699 49.9822L16.5934 49.309L58.8384 48.1309C59.7031 48.1309 60.5351 48.4616 61.1637 49.0554Z" fill="black"/>
<path d="M67.4906 60.0401L67.6296 60.2138C67.7989 60.4255 67.782 60.7305 67.5904 60.9222C67.0469 61.3569 66.3672 61.5855 65.6715 61.5674L40.8296 60.9222L27.1967 60.0806L66.8746 59.7472C67.114 59.7452 67.341 59.8532 67.4906 60.0401Z" stroke="black"/>
<path d="M61.1637 49.0554L63.1228 50.9056C63.1813 50.9608 63.2144 51.0376 63.2144 51.118C63.2144 51.2438 63.1339 51.3555 63.0145 51.3953L62.8085 51.464C62.743 51.4858 62.6742 51.4961 62.6051 51.4943L43.5225 50.9921L27.8699 49.9822L16.5934 49.309L58.8384 48.1309C59.7031 48.1309 60.5351 48.4616 61.1637 49.0554Z" stroke="black"/>
<path d="M151.192 111.085L142.19 111.401C142.102 111.404 142.072 111.285 142.15 111.246L142.487 111.078C142.823 110.854 143.135 110.597 143.421 110.312L143.497 110.236L145.011 108.721L146.863 106.87C147.423 106.31 147.933 105.702 148.387 105.053L148.882 104.345L149.058 104.082C149.387 103.588 149.803 103.159 150.286 102.814C150.584 102.601 150.857 102.356 151.1 102.082L152.08 100.979L153.427 99.296L155.11 96.6031L157.743 92.1677C158.115 91.5413 158.616 91.0012 159.213 90.5835C159.727 90.2236 160.303 89.9611 160.912 89.809L163.357 89.1976L166.555 88.5244L170.426 88.0195L171.941 87.8512L175.53 87.688C175.605 87.6846 175.681 87.6891 175.755 87.7015C176.273 87.7879 176.653 88.2448 176.653 88.7701C176.653 88.939 176.614 89.1079 176.538 89.259L176.317 89.7025L175.307 91.2173L168.743 99.6326L165.208 103.167L162.515 105.355L158.476 108.385L157.469 108.944C156.127 109.69 154.692 110.256 153.201 110.629L151.616 111.025C151.477 111.06 151.335 111.08 151.192 111.085Z" fill="#99D210" stroke="#99D210"/>
<path d="M114.38 107.88L113.605 109.74C113.56 109.846 113.532 109.957 113.519 110.071C113.439 110.788 114 111.414 114.721 111.414H140.71C140.996 111.414 141.28 111.374 141.554 111.296C142.055 111.153 142.512 110.884 142.881 110.515L147.014 106.382C147.585 105.811 148.098 105.185 148.546 104.514L149.219 103.504L149.38 103.279C149.823 102.659 150.061 101.916 150.061 101.154C150.061 100.815 150.013 100.477 149.92 100.15L149.724 99.4643L149.387 98.2862C149.164 97.391 149.034 96.4749 149.001 95.5527L148.901 92.759C148.889 92.4073 148.939 92.0561 149.051 91.7222L149.387 90.5441L149.464 90.2397C149.636 89.5488 149.91 88.8872 150.277 88.2766C150.58 87.7705 150.945 87.3035 151.362 86.8862L151.744 86.5047C152.186 86.062 152.726 85.7284 153.32 85.5304L153.427 85.4949C154.32 85.1599 155.256 84.9508 156.207 84.8737L159.94 84.5711C160.644 84.5139 161.34 84.372 162.01 84.1484L164.198 83.1386L165.083 82.6228C165.838 82.182 166.556 81.6789 167.228 81.1189L168.309 80.3465C168.374 80.3005 168.434 80.2492 168.49 80.1933L168.779 79.9043C168.864 79.8199 168.911 79.7054 168.911 79.5859C168.911 79.4885 168.879 79.3937 168.821 79.3158L168.545 78.9483C168.453 78.825 168.345 78.7139 168.225 78.6176L167.9 78.3575C167.677 78.1791 167.439 78.0197 167.189 77.8809L166.05 77.2478L163.862 76.4063L161.842 75.7331L159.991 75.0599L159.325 74.7746C158.987 74.6297 158.623 74.5549 158.255 74.5549H157.844C157.386 74.5549 156.948 74.7366 156.625 75.0599L152.974 78.9455C151.932 80.0554 150.787 81.0648 149.556 81.9604L146.526 83.6435L139.794 88.3561L134.071 92.0588L128.854 94.7518L125.993 96.2665L123.468 97.613L122.996 97.9084C121.52 98.8305 120.154 99.9171 118.924 101.147C117.804 102.38 116.788 103.703 115.888 105.103L115.726 105.355L114.38 107.88Z" fill="black" stroke="black"/>
<path d="M95.98 0.5H183.445C187.824 0.5 190.088 5.7301 187.09 8.92248L175.778 20.9707C174.833 21.9772 173.514 22.5482 172.133 22.5482H99.4797C98.9847 22.5482 98.4965 22.6634 98.0538 22.8848L96.8757 23.3897L96.0341 23.8947L94.856 24.5679L94.0146 25.1689C93.7905 25.329 93.58 25.5073 93.3852 25.702L92.668 26.4193L91.9948 27.2608L91.3215 28.1023L90.8166 28.9439L90.4222 29.6012C90.3487 29.7236 90.2889 29.8537 90.2438 29.9891C90.1773 30.1886 90.1434 30.3975 90.1434 30.6078V31.0809C90.1434 31.3336 90.2182 31.5807 90.3584 31.7909C90.4389 31.9117 90.5393 32.0179 90.6554 32.1049L90.7085 32.1448C90.9972 32.3613 91.3483 32.4783 91.7091 32.4783H144.847C145.291 32.4783 145.734 32.4191 146.162 32.3021L147.368 31.9734L149.724 31.3002L152.754 30.2903L155.278 29.2805L157.345 28.3264C157.402 28.3003 157.466 28.3416 157.466 28.4037C157.466 28.4263 157.457 28.4479 157.441 28.4639L156.83 29.0749C156.694 29.2113 156.54 29.329 156.372 29.4247L154.268 30.6269L150.734 32.31L146.358 33.9931L141.645 35.3395L139.794 35.8444L138.111 36.3494L136.596 36.686L134.939 37.0175C134.922 37.0209 134.905 37.0257 134.889 37.0317C134.567 37.1522 134.631 37.6243 134.973 37.6553L135.379 37.6923C135.405 37.6946 135.431 37.6994 135.456 37.7066L136.596 38.0324L137.832 38.3415C137.906 38.3598 137.977 38.3861 138.044 38.4198L138.255 38.5254C138.476 38.6359 138.616 38.8617 138.616 39.1087C138.616 39.2817 138.547 39.4476 138.425 39.5699L138.279 39.7155L137.438 40.3887L137.157 40.6133C136.786 40.9101 136.365 41.1388 135.915 41.2891L135.603 41.393C135.592 41.3967 135.58 41.3994 135.569 41.4012L135.239 41.4511C135.083 41.4747 135.076 41.6975 135.23 41.731C135.243 41.7338 135.256 41.7348 135.269 41.7339L137.943 41.5669L139.794 41.3986H140.739C141.338 41.3986 141.931 41.2843 142.487 41.062L142.845 40.9187C143.166 40.7901 143.474 40.6286 143.762 40.4366L143.833 40.3887L144.062 40.2742C144.357 40.1271 144.625 39.9335 144.858 39.701C144.96 39.5986 145.07 39.5036 145.185 39.4167L145.489 39.1892C145.619 39.0914 145.743 38.9844 145.858 38.8691C146.188 38.5392 146.581 38.2797 147.015 38.1064L147.199 38.0324L148.546 37.6958L150.061 37.3592L152.249 37.0226L154.268 36.686L156.288 36.3494L157.696 36.0934C157.991 36.0397 158.29 36.0127 158.59 36.0127H159.654C160.2 36.0127 160.732 36.1899 161.169 36.5177L162.231 37.3143C162.42 37.4563 162.599 37.6115 162.767 37.7788L163.459 38.4713C163.727 38.7389 164.024 38.9752 164.345 39.1758L165.208 39.7155L165.505 39.8639C165.753 39.9877 166.026 40.0521 166.302 40.0521C166.579 40.0521 166.852 39.9877 167.099 39.8639L167.396 39.7155L168.019 39.4666C168.163 39.4086 168.318 39.3789 168.474 39.3789H169.072C169.516 39.3789 169.854 39.7777 169.781 40.2158C169.762 40.3294 169.716 40.4368 169.647 40.5289L167.228 43.7549L164.03 47.9625L162.852 49.4773L161.674 50.9921L160.3 52.3656C160.094 52.5715 159.871 52.7591 159.632 52.9262L158.308 53.8533L157.13 54.5265L156.288 55.0314L155.615 55.368L155.001 55.736C154.85 55.827 154.689 55.9012 154.521 55.9571C154.353 56.013 154.192 56.0872 154.04 56.1782L153.427 56.5462L152.585 57.2194L151.469 58.0878C151.204 58.2938 150.96 58.5259 150.742 58.7806L150.061 59.5757L149.051 60.9222L148.378 62.1003L147.873 63.1101L147.216 64.4231C147.093 64.6694 146.95 64.9052 146.788 65.1279L145.685 66.6446L144.506 68.1593L142.992 70.0107L141.982 71.3572L140.804 73.0403L139.794 74.555L138.952 75.7332L137.943 77.0796L137.101 78.2578L136.304 79.3199C136.162 79.5092 136.007 79.6882 135.84 79.8555L135.25 80.4457L134.408 81.119L134.031 81.4015C133.834 81.5495 133.624 81.6794 133.403 81.7897C133.176 81.9033 132.939 81.9956 132.694 82.0655L131.883 82.2971L130.874 82.6337L129.191 83.307L127.985 83.8548C127.557 84.0496 127.158 84.304 126.8 84.6104L126.48 84.8853C126.268 85.067 126.071 85.2662 125.892 85.4807L125.32 86.1682L124.31 87.5146L123.499 88.8662C123.366 89.0869 123.217 89.297 123.052 89.4947L122.458 90.2076L121.28 91.554L120.27 92.7321L119.092 93.9103L117.072 95.5934L115.726 96.6032L114.716 97.2764L113.37 97.9497L111.855 98.9595L111.201 99.5205C110.853 99.8183 110.548 100.162 110.294 100.543L110.004 100.979L109.499 101.989L109.214 102.558C109.068 102.85 108.961 103.162 108.897 103.483C108.849 103.721 108.825 103.963 108.825 104.205V106.078C108.825 108.839 106.587 111.078 103.825 111.078H33.2086C28.7541 111.078 26.5233 105.692 29.6731 102.542L36.6721 95.5431C37.6098 94.6054 38.8816 94.0786 40.2076 94.0786H112.148C112.512 94.0786 112.876 94.0387 113.232 93.9595L113.815 93.8299C114.079 93.7714 114.337 93.6916 114.588 93.5914L115.894 93.0688L117.072 92.5638L117.912 92.084C118.137 91.9553 118.352 91.8092 118.555 91.6471L119.092 91.2174L119.934 90.3759L120.775 89.5343L121.509 88.6539C121.58 88.5686 121.633 88.4693 121.663 88.3625C121.809 87.8533 121.426 87.3463 120.897 87.3463H57.4448C52.9903 87.3463 50.7595 81.9606 53.9093 78.8108L67.3174 65.4027C67.387 65.3331 67.4615 65.2685 67.5403 65.2094C67.9005 64.9392 68.3386 64.7932 68.7888 64.7932H113.033H113.69C114.367 64.7932 115.037 64.6557 115.659 64.3889L115.894 64.2883L117.577 63.2785L119.092 62.2686L120.045 61.4349C120.307 61.2059 120.544 60.9502 120.752 60.672L121.089 60.2235C121.328 59.905 121.528 59.5591 121.685 59.1931L121.953 58.5659L122.173 57.7965C122.251 57.5253 122.29 57.2446 122.29 56.9625V56.8166C122.29 56.5268 122.235 56.2396 122.127 55.9705C122.012 55.684 121.841 55.4238 121.623 55.2057L121.386 54.9687C121.204 54.7865 121.004 54.6228 120.79 54.48L120.567 54.3313C120.258 54.1255 119.927 53.9558 119.579 53.8255C119.035 53.6213 118.458 53.5167 117.876 53.5167H75.6388C75.1014 53.5167 74.5675 53.43 74.0577 53.2601L73.1449 52.9558C72.9204 52.881 72.7016 52.7903 72.4899 52.6845L70.1149 51.497L68.2105 50.2727C67.9101 50.0796 67.6312 49.8549 67.3787 49.6024L66.0093 48.2329C65.8293 48.0529 65.6633 47.8595 65.5128 47.6542L64.2624 45.9492C64.0135 45.6097 63.8084 45.2402 63.6521 44.8493L62.8777 42.9133L62.522 41.4908C62.4229 41.0942 62.3727 40.6869 62.3727 40.2781V37.9747C62.3727 37.5659 62.4229 37.1587 62.522 36.762L62.8777 35.3395L64.1044 31.0459C64.1841 30.7671 64.2878 30.4958 64.4145 30.235L67.0853 24.7362L71.1247 16.8258L74.0756 12.3218C74.2399 12.071 74.4264 11.8355 74.6329 11.6182L77.2312 8.88309C77.4236 8.68054 77.6327 8.49447 77.8562 8.32684L81.5597 5.54921L85.5787 3.23059C85.8163 3.0935 86.0648 2.97619 86.3217 2.87987L89.5551 1.66732C89.8345 1.56254 90.1227 1.48299 90.4163 1.42961L95.0856 0.58065C95.3807 0.526992 95.6801 0.5 95.98 0.5Z" fill="black" stroke="black"/>
<path d="M162.01 31.8051L168.238 31.3002C170.415 31.0825 172.449 30.1184 173.996 28.5714L186.752 15.8159L196.682 5.21259L197.684 4.28732C198.472 3.5598 199.336 2.91865 200.26 2.37482L200.506 2.23054C201.32 1.75161 202.186 1.36625 203.086 1.0818C204.307 0.696211 205.58 0.5 206.861 0.5H208.564C209.837 0.5 211.105 0.669803 212.334 1.00492L214.768 1.81629C216.167 2.28253 217.487 2.95788 218.684 3.81937L218.98 4.03274C220.37 5.03354 221.545 6.30306 222.436 7.76614C223.103 8.86265 223.602 10.0533 223.915 11.2982L248.352 108.385L248.834 111.115C248.848 111.197 248.822 111.281 248.763 111.34C248.715 111.387 248.65 111.414 248.583 111.414H221.928C221.433 111.414 221.002 111.078 220.882 110.598L217.383 96.6032C217.081 95.6961 216.238 95.0796 215.282 95.0663L180.524 94.5835H179.752C179.6 94.5835 179.454 94.523 179.346 94.4152C179.238 94.3074 179.178 94.1613 179.178 94.0089V93.8068C179.178 93.5481 179.272 93.2983 179.443 93.1042L196.682 73.5452C196.789 73.4374 196.936 73.3769 197.088 73.3769H211.661C211.831 73.3769 211.955 73.2158 211.911 73.0515L207.622 56.8828L207.353 56.0757C207.312 55.9546 207.199 55.873 207.071 55.873C206.993 55.873 206.917 55.9042 206.861 55.9598L206.612 56.2096L193.989 69.6741L188.435 75.3965L187.633 76.0982C187.282 76.4054 186.831 76.5747 186.365 76.5747H186.329C186.053 76.5747 185.782 76.5105 185.535 76.3873C185.338 76.2887 185.161 76.1542 185.013 75.9906L182.039 72.7036L179.178 69.6741L174.633 65.9714L170.513 62.8018C170.346 62.6731 170.216 62.5018 170.138 62.3059C170.001 61.9643 170.032 61.5784 170.221 61.2629L170.274 61.1749C170.374 61.0083 170.508 60.8646 170.667 60.7531L172.109 59.744L176.821 57.2194L180.019 55.5363L183.049 53.8533L184.337 53.2092C184.599 53.0781 184.877 52.9826 185.165 52.9251L185.721 52.8138C186.168 52.7246 186.631 52.8048 187.021 53.039C187.177 53.1325 187.318 53.2487 187.44 53.3838L188.771 54.8631L190.791 57.7243L193.175 60.4068C193.38 60.6375 193.611 60.8444 193.862 61.0237C194.388 61.3996 194.995 61.6466 195.634 61.7449L196.244 61.8389C196.642 61.9001 197.049 61.8656 197.431 61.7383C197.715 61.6438 197.979 61.4998 198.213 61.3131L200.167 59.7492C200.872 59.1857 201.529 58.5655 202.133 57.895L205.77 53.8533L206.331 53.2066C207.412 51.959 208.343 50.5887 209.105 49.1239L209.753 47.8773C210.014 47.3745 210.221 46.8453 210.37 46.2986L210.398 46.1993C210.566 45.5823 210.651 44.9456 210.651 44.306V43.8965C210.651 43.4678 210.588 43.0413 210.465 42.6307L210.436 42.5325C210.246 41.8987 209.901 41.3219 209.433 40.854L208.999 40.4199C208.652 40.0724 208.198 39.8507 207.711 39.7898C207.322 39.7411 206.927 39.7969 206.566 39.9514L206.476 39.9901C206.122 40.1417 205.807 40.3708 205.553 40.6605L205.244 41.0142C204.924 41.3804 204.663 41.7946 204.471 42.2418L203.75 43.9232L202.572 46.9527L200.987 49.8355C200.81 50.1571 200.605 50.4621 200.373 50.747L198.714 52.7892C198.599 52.93 198.428 53.0117 198.246 53.0117C198.105 53.0117 197.969 52.9623 197.86 52.8721L197.221 52.3391C197.086 52.2267 196.962 52.1024 196.849 51.9675L196.191 51.1778C195.622 50.4944 195.118 49.7592 194.686 48.9816L193.855 47.4864C193.72 47.2431 193.603 46.9902 193.505 46.7296L193.23 45.9966C193.175 45.8498 193.147 45.6942 193.147 45.5373C193.147 45.2543 193.239 44.9789 193.409 44.7525L193.563 44.5464C193.622 44.4676 193.687 44.3931 193.757 44.3235L193.933 44.1468C194.194 43.8861 194.48 43.6519 194.786 43.4474L195.335 43.0816L196.345 42.2401L197.523 41.062L197.715 40.8701C198.704 39.8811 199.546 38.7554 200.216 37.5275L200.889 36.181L201.899 33.8248C202.122 33.0431 202.236 32.2342 202.236 31.4213V29.6775C202.236 29.1903 202.176 28.7048 202.058 28.2321C201.952 27.8102 201.801 27.4012 201.607 27.0123L201.394 26.5876C200.84 25.7001 200.102 24.9409 199.232 24.3604L199.038 24.2313L196.682 23.0531C196.018 22.7211 195.285 22.5482 194.543 22.5482H193.605C193.195 22.5482 192.793 22.6596 192.442 22.8704C192.24 22.9915 192.058 23.1433 191.903 23.3204L191.41 23.8844C191.11 24.227 190.844 24.598 190.616 24.992L189.108 27.5974L187.256 30.7952L186.247 32.31L185.628 33.1759C185.48 33.3829 185.303 33.5673 185.102 33.7231L185.068 33.7493C184.632 34.0869 184.096 34.2701 183.545 34.2701C183.327 34.2701 183.111 34.2416 182.901 34.1854L177.535 32.7477C177.285 32.6806 177.027 32.6466 176.767 32.6466H159.54C159.344 32.6466 159.3 32.372 159.486 32.31L162.01 31.8051Z" fill="#99D210" stroke="#99D210"/>
<path d="M42.0646 84.2261L42.7218 84.6369C42.8953 84.7453 42.9719 84.9585 42.9072 85.1526C42.8701 85.2641 42.7902 85.3562 42.6851 85.4087L42.2153 85.6436C41.9684 85.7671 41.6952 85.829 41.4191 85.8239L23.3359 85.4952C23.329 85.495 23.3223 85.4943 23.3156 85.493C23.1851 85.4669 23.1973 85.2766 23.3299 85.2673L41.2082 84.0127C41.509 83.9916 41.8088 84.0663 42.0646 84.2261Z" fill="#99D210"/>
<path d="M52.7534 72.7022L53.4895 73.2747C53.5724 73.3392 53.6208 73.4383 53.6208 73.5433C53.6208 73.6504 53.5704 73.7513 53.4847 73.8156L52.9476 74.2184C52.3971 74.5487 51.7667 74.7222 51.1247 74.7201L0.676898 74.5553C0.630329 74.5551 0.58571 74.5365 0.55278 74.5036C0.444016 74.3949 0.516908 74.2087 0.670607 74.2027L51.2866 72.2307C51.8158 72.21 52.3354 72.3771 52.7534 72.7022Z" fill="#99D210"/>
<path d="M42.0646 84.2261L42.7218 84.6369C42.8953 84.7453 42.9719 84.9585 42.9072 85.1526C42.8701 85.2641 42.7902 85.3562 42.6851 85.4087L42.2153 85.6436C41.9684 85.7671 41.6952 85.829 41.4191 85.8239L23.3359 85.4952C23.329 85.495 23.3223 85.4943 23.3156 85.493C23.1851 85.4669 23.1973 85.2766 23.3299 85.2673L41.2082 84.0127C41.509 83.9916 41.8088 84.0663 42.0646 84.2261Z" stroke="#99D210"/>
<path d="M52.7534 72.7022L53.4895 73.2747C53.5724 73.3392 53.6208 73.4383 53.6208 73.5433C53.6208 73.6504 53.5704 73.7513 53.4847 73.8156L52.9476 74.2184C52.3971 74.5487 51.7667 74.7222 51.1247 74.7201L0.676898 74.5553C0.630329 74.5551 0.58571 74.5365 0.55278 74.5036C0.444016 74.3949 0.516908 74.2087 0.670607 74.2027L51.2866 72.2307C51.8158 72.21 52.3354 72.3771 52.7534 72.7022Z" stroke="#99D210"/>
</svg>
