<svg width="34" height="34" viewBox="0 0 34 34" fill="none" xmlns="http://www.w3.org/2000/svg">
<path d="M17 0.675751C24.373 0.675751 30.3496 6.65236 30.3496 14.0254C30.3495 15.6772 29.7123 17.5428 28.7725 19.4131C27.8268 21.2948 26.5446 23.2398 25.1904 25.0644C22.4813 28.7147 19.4436 31.9396 18.1133 33.3047C17.4975 33.9359 16.5023 33.9362 15.8867 33.3047C14.5564 31.9395 11.5188 28.7148 8.80957 25.0644C7.45531 23.2397 6.17326 21.2949 5.22754 19.4131C4.28769 17.5428 3.6505 15.6772 3.65039 14.0254C3.65039 6.65249 9.62718 0.675962 17 0.675751ZM17 1.87497C10.2899 1.87518 4.84961 7.31523 4.84961 14.0254C4.84972 15.3998 5.39076 17.0661 6.2998 18.875C7.20315 20.6724 8.44196 22.5556 9.77344 24.3496C12.4361 27.9372 15.431 31.1172 16.7461 32.4668C16.8907 32.6151 17.1092 32.6149 17.2539 32.4668C18.569 31.1173 21.564 27.937 24.2266 24.3496C25.558 22.5557 26.7969 20.6723 27.7002 18.875C28.6092 17.0661 29.1503 15.3998 29.1504 14.0254C29.1504 7.3151 23.7103 1.87497 17 1.87497ZM17 7.05075C20.2654 7.05075 22.9121 9.69748 22.9121 12.9629C22.9119 16.2281 20.2652 18.875 17 18.875C13.7349 18.8748 11.0881 16.2279 11.0879 12.9629C11.0879 9.69761 13.7348 7.05096 17 7.05075ZM17 8.24997C14.3975 8.25018 12.2871 10.3603 12.2871 12.9629C12.2873 15.5652 14.3977 17.6755 17 17.6758C19.6025 17.6758 21.7127 15.5653 21.7129 12.9629C21.7129 10.3602 19.6026 8.24997 17 8.24997Z" fill="white"/>
<circle cx="17" cy="12.9624" r="5.3125" stroke="white" stroke-width="1.2"/>
</svg>
