<svg width="276" height="38" viewBox="0 0 276 38" fill="none" xmlns="http://www.w3.org/2000/svg">
<path d="M227.052 20.1719L230.914 8.36672C230.935 8.30164 231.017 8.28193 231.066 8.33034C231.071 8.33559 231.076 8.34145 231.079 8.34781L238.254 20.2307C238.313 20.3288 238.393 20.4125 238.489 20.4761C238.616 20.5613 238.767 20.6068 238.92 20.6068H243.477C243.609 20.6068 243.735 20.5545 243.828 20.4615C243.882 20.4076 243.923 20.3421 243.947 20.27L250.385 1.29518C250.444 1.00134 250.219 0.727192 249.92 0.727192H244.933C244.661 0.727192 244.421 0.90117 244.336 1.15871L240.843 11.7462L240.68 12.3991C240.642 12.5495 240.507 12.655 240.352 12.655C240.234 12.655 240.124 12.5931 240.063 12.4918L233.232 1.18158C233.017 0.895537 232.681 0.727192 232.323 0.727192H227.666C227.462 0.727192 227.28 0.856412 227.213 1.04915L220.65 19.9614C220.632 20.0126 220.623 20.0665 220.623 20.1208C220.623 20.3892 220.84 20.6068 221.109 20.6068H226.452C226.577 20.6068 226.699 20.5699 226.802 20.5008C226.92 20.4223 227.008 20.3065 227.052 20.1719Z" fill="#99D210" stroke="#99D210"/>
<path d="M119.133 4.74126L120.524 0.780917C120.536 0.74554 120.557 0.713407 120.583 0.686892C120.63 0.639948 120.694 0.613575 120.76 0.613575H143.653C143.694 0.613575 143.733 0.629878 143.762 0.658899C143.804 0.700682 143.818 0.762612 143.799 0.818508L142.467 4.70309C142.399 4.90661 142.209 5.04389 141.994 5.04389H134.515C134.38 5.04389 134.26 5.13121 134.218 5.26008L129.543 19.7324C129.526 19.7851 129.505 19.8365 129.48 19.886C129.294 20.2581 128.914 20.4932 128.498 20.4932H123.837C123.669 20.4932 123.549 20.3291 123.6 20.1684L128.268 5.49828C128.325 5.26747 128.151 5.04389 127.913 5.04389H119.347C119.312 5.04389 119.277 5.03567 119.245 5.01989C119.143 4.96869 119.095 4.84929 119.133 4.74126Z" fill="white" stroke="white"/>
<path d="M27.6896 20.2769L33.9596 0.795059C33.974 0.750458 33.9987 0.709916 34.0319 0.676785C34.0731 0.635584 34.1256 0.6075 34.1827 0.596073L34.5231 0.527995C34.6162 0.509377 34.7109 0.5 34.8058 0.5H52.0435H53.4067H53.9218C54.1826 0.5 54.4416 0.542031 54.6889 0.624474C54.8934 0.692651 55.0879 0.787791 55.2673 0.90738L56.0194 1.40878L56.4577 1.79834C56.8396 2.13779 57.1196 2.57674 57.2664 3.06614C57.3435 3.32303 57.3826 3.5898 57.3826 3.858V4.84461C57.3826 5.43061 57.3283 6.01534 57.2203 6.59129L57.0418 7.54306L56.5954 8.88224C56.4388 9.35203 56.2491 9.81012 56.0276 10.2531L55.8602 10.5879C55.5887 11.1308 55.2517 11.6385 54.8566 12.0994C54.3476 12.6932 53.7479 13.2029 53.0798 13.6096L52.2644 14.1059C51.7412 14.4244 51.175 14.6663 50.5832 14.8241C50.0444 14.9678 49.4892 15.0405 48.9316 15.0405H38.2982C38.1274 15.0405 38.0041 14.877 38.051 14.7128L38.4118 13.4501L38.8662 12.087L39.304 10.7735C39.315 10.7404 39.3284 10.7081 39.344 10.6769C39.4689 10.4272 39.7242 10.2694 40.0034 10.2694H47.3942C47.6897 10.2694 47.9833 10.2218 48.2637 10.1283C48.4355 10.0711 48.6012 9.99697 48.7584 9.90713L48.7937 9.88692C49.1396 9.6893 49.4449 9.4281 49.6938 9.11707L49.8286 8.94855C50.0921 8.61921 50.3056 8.25284 50.4622 7.86124L50.6803 7.31587L50.8509 6.63372C50.8885 6.4832 50.9075 6.32863 50.9075 6.17347V5.96457C50.9075 5.80735 50.8709 5.65229 50.8006 5.51166L50.7659 5.44228C50.7098 5.33011 50.6255 5.23451 50.5211 5.16495C50.4027 5.08602 50.2636 5.04391 50.1213 5.04391H38.8662C38.7305 5.04391 38.61 5.13073 38.5671 5.25945L38.4118 5.7255L37.9574 7.08867L37.2758 9.13343L36.367 11.8598L35.6854 14.1317L35.4582 14.8133L34.7767 16.7445L34.0951 18.7892L33.8679 19.5844L33.6776 20.1554C33.6533 20.2281 33.6124 20.2942 33.5582 20.3485C33.4655 20.4411 33.3399 20.4932 33.2088 20.4932H27.8472C27.7349 20.4932 27.6552 20.3838 27.6896 20.2769Z" fill="white" stroke="white"/>
<path d="M29.9328 0.849796L28.751 4.69084C28.6863 4.90098 28.4928 5.04488 28.2729 5.04631L11.7193 5.1538C11.3477 5.15621 10.986 5.27343 10.6836 5.4894C10.466 5.64485 10.2857 5.84679 10.1558 6.08058L9.91131 6.52072C9.82795 6.67076 9.77417 6.83541 9.75288 7.00573L9.71524 7.30685C9.68765 7.52756 9.76351 7.74865 9.92079 7.90594C10.0524 8.03755 10.2298 8.11315 10.4159 8.11691L21.3721 8.33825L23.4651 8.50569C23.9556 8.54493 24.429 8.70355 24.8442 8.96772C25.2499 9.22591 25.5915 9.58324 25.8338 9.99865C26.1083 10.4692 26.2568 11.0108 26.2568 11.5556V12.3142L26.0296 14.0181L25.738 15.1261C25.5548 15.8224 25.2675 16.487 24.8859 17.0975C24.5144 17.692 24.0575 18.2286 23.53 18.6902L23.2913 18.8991C22.7725 19.353 22.1842 19.7208 21.5488 19.9883C20.7574 20.3215 19.9073 20.4932 19.0486 20.4932H0.810886H0.583691C0.527419 20.4932 0.487356 20.4385 0.504301 20.3849L1.81531 16.2333C1.82711 16.196 1.84773 16.162 1.87543 16.1343C1.92117 16.0886 1.9832 16.0629 2.04789 16.0629H17.6898C18.0215 16.0629 18.3504 16.0032 18.661 15.8868L18.7562 15.8511C18.9839 15.7657 19.1955 15.6426 19.3823 15.487L19.4234 15.4527C19.6589 15.2564 19.8447 15.0072 19.9654 14.7255L20.0202 14.5977C20.0877 14.4402 20.1225 14.2706 20.1225 14.0992V14.0525C20.1225 13.809 20.0435 13.572 19.8974 13.3772L19.8705 13.3413C19.8117 13.263 19.7401 13.1952 19.6586 13.1409C19.5167 13.0462 19.3499 12.9958 19.1793 12.9958H6.99354C6.73507 12.9958 6.47757 12.9641 6.22682 12.9014C5.87528 12.8135 5.54147 12.6658 5.23998 12.4648L5.20754 12.4432C4.63755 12.0632 4.19622 11.5193 3.9418 10.8832L3.9117 10.808C3.73937 10.3772 3.65083 9.91741 3.65083 9.4534V8.79221C3.65083 8.18911 3.72788 7.58848 3.88012 7.00491L4.03541 6.40965C4.23275 5.65317 4.51716 4.92214 4.88295 4.2312L5.0653 3.88678C5.25782 3.52312 5.48605 3.17953 5.7466 2.86107C6.16431 2.35054 6.66078 1.9099 7.21729 1.55575L7.62675 1.29518C8.74909 0.771428 9.97257 0.5 11.2111 0.5H29.7714C29.776 0.5 29.7804 0.501054 29.7845 0.50308C29.912 0.566855 29.9748 0.713497 29.9328 0.849796Z" fill="white" stroke="white"/>
<path d="M83.124 0C83.5087 3.68984e-06 83.8909 0.061954 84.2559 0.183594C84.4165 0.237142 84.5732 0.302205 84.7246 0.37793L85.4375 0.734375L85.4658 0.748047L85.4912 0.765625L85.9053 1.04199C86.1105 1.17878 86.3022 1.33539 86.4766 1.50977C86.6508 1.68405 86.8076 1.87502 86.9443 2.08008L87.2207 2.49414L87.2373 2.52051L87.252 2.54883L87.2812 2.60742C87.4288 2.90251 87.544 3.21314 87.624 3.5332C87.7137 3.89179 87.7588 4.26026 87.7588 4.62988V5.0957C87.7588 5.70164 87.692 6.30595 87.5605 6.89746L87.5195 7.08398L87.5176 7.09375L87.5146 7.10352L87.0605 8.80762L87.0566 8.82227L85.6885 12.9268L85.1006 14.6895C84.8792 15.3535 84.6109 16.0009 84.2979 16.627L84.292 16.6396L84.2852 16.6514L83.9834 17.1787C83.553 17.932 82.9966 18.6063 82.3379 19.1709C81.8681 19.5736 81.3503 19.9166 80.7969 20.1934L80.1523 20.5156C79.8573 20.6631 79.5466 20.7784 79.2266 20.8584C78.868 20.948 78.4995 20.9932 78.1299 20.9932H62.1875C61.5729 20.9932 60.9643 20.8681 60.3994 20.626L60.3271 20.5947C59.762 20.3525 59.2571 19.9888 58.8486 19.5293C58.5756 19.2221 58.349 18.8761 58.1768 18.5029L58.1309 18.4043C57.8324 17.7577 57.6777 17.053 57.6777 16.3408V16.0986C57.6777 15.4979 57.7677 14.9003 57.9443 14.3262L58.6084 12.167L59.7441 8.4209L59.75 8.40039L59.7578 8.38184L61.3135 4.44531C61.5821 3.76592 61.9621 3.13574 62.4375 2.58105C62.9383 1.99675 63.5382 1.50522 64.209 1.12793L65.0889 0.631836L65.1123 0.619141L65.1377 0.608398L65.3867 0.501953C65.7814 0.332803 66.1932 0.20433 66.6143 0.120117C67.0146 0.0400914 67.4218 1.08583e-05 67.8301 0H83.124ZM69.3936 5.15723C69.2632 5.15723 69.1334 5.1785 69.0098 5.21973C68.9076 5.25381 68.8103 5.30157 68.7207 5.36133L68.5723 5.45996C68.3092 5.63538 68.0808 5.85815 67.8994 6.11719L67.7109 6.3877C67.4908 6.70213 67.3137 7.0448 67.1846 7.40625L66.8115 8.45215L65.2207 13.2227L65.0576 13.7676C64.9422 14.1523 64.9482 14.5633 65.0752 14.9443L65.1289 15.1045C65.1895 15.2864 65.2912 15.4523 65.4268 15.5879C65.6584 15.8195 65.9732 15.9492 66.3008 15.9492H75.959C76.293 15.9492 76.6221 15.871 76.9209 15.7217C77.5103 15.3533 77.962 14.8012 78.2061 14.1504L79.875 9.70117L80.3291 8.11133L80.5908 7.24023C80.6435 7.06442 80.6699 6.88179 80.6699 6.69824V6.32812C80.6699 5.95021 80.4872 5.59563 80.1797 5.37598C79.9813 5.23424 79.7439 5.15725 79.5 5.15723H69.3936Z" fill="white"/>
<path d="M86.6067 20.2885L92.9036 0.835269C92.9245 0.770838 92.9845 0.727192 93.0522 0.727192H113.954C114.176 0.727192 114.394 0.792968 114.579 0.91623L115.116 1.27447C115.474 1.51311 115.781 1.82027 116.02 2.17823C116.377 2.71351 116.567 3.34244 116.567 3.98576V4.97261C116.567 5.62234 116.47 6.26843 116.279 6.88943L116.113 7.42946L115.879 8.19016C115.732 8.66579 115.529 9.12195 115.273 9.54867C115.076 9.87698 114.849 10.1862 114.594 10.4724L114.037 11.0988C113.455 11.7542 112.781 12.3229 112.038 12.7877L111.766 12.9574C111.484 13.1341 111.186 13.2852 110.876 13.409C110.431 13.5872 109.965 13.7075 109.489 13.767L108.419 13.9006C108.399 13.9032 108.378 13.9093 108.36 13.9187C108.256 13.9705 108.225 14.1033 108.294 14.1959L112.881 20.3114C112.914 20.3557 112.932 20.4095 112.932 20.4648C112.932 20.606 112.817 20.7204 112.676 20.7204H105.207C105.065 20.7204 104.933 20.6489 104.856 20.5302L101.345 15.1541C101.203 14.9412 100.964 14.8133 100.708 14.8133H97.4825C97.2574 14.8133 97.0972 14.5947 97.165 14.38L98.3554 10.6103C98.379 10.5356 98.4202 10.4677 98.4756 10.4123C98.5671 10.3208 98.6912 10.2694 98.8206 10.2694H105.811C106.238 10.2694 106.662 10.1926 107.062 10.0425C107.264 9.96675 107.459 9.87273 107.644 9.76166L107.934 9.58782L108.152 9.42379C108.607 9.08273 108.983 8.64798 109.255 8.14896C109.434 7.82238 109.565 7.47238 109.646 7.10923L109.705 6.84082C109.736 6.70354 109.751 6.56332 109.751 6.42269V6.14773C109.751 5.94648 109.692 5.74973 109.58 5.58228C109.543 5.52643 109.5 5.47439 109.453 5.42692L109.436 5.41063C109.201 5.17582 108.883 5.04391 108.551 5.04391H98.0505C97.8476 5.04391 97.6679 5.17525 97.6064 5.36866L92.9559 19.9846C92.9444 20.0207 92.9301 20.0558 92.9132 20.0897C92.7895 20.337 92.5368 20.4932 92.2603 20.4932H86.7556C86.7141 20.4932 86.6743 20.4767 86.6449 20.4474C86.6033 20.4058 86.5885 20.3444 86.6067 20.2885Z" fill="white" stroke="white"/>
<path d="M159.621 0.113281C160.11 0.113677 160.542 0.431862 160.688 0.898438L166.346 19.0947L166.349 19.1035L166.351 19.1113C166.609 20.0586 165.896 20.9929 164.914 20.9932H160.075C159.585 20.993 159.152 20.6708 159.011 20.2012L158.555 18.6807C158.512 18.5393 158.441 18.408 158.345 18.2959C158.144 18.0613 157.849 17.9259 157.54 17.9258H147.579C147.156 17.926 146.754 18.1173 146.488 18.4463L145.128 20.126L145.123 20.1318C144.668 20.6772 143.994 20.993 143.284 20.9932H138.151C137.55 20.9926 137.213 20.3004 137.583 19.8271L152.655 0.573242C152.883 0.2833 153.231 0.113532 153.6 0.113281H159.621ZM155.751 5.5791C155.487 5.31524 155.051 5.34533 154.825 5.64258L149.761 12.3232C149.459 12.7219 149.638 13.2998 150.113 13.458C150.187 13.4827 150.265 13.4951 150.343 13.4951H156.908C157.403 13.4948 157.829 13.146 157.926 12.6611C157.96 12.4897 157.95 12.3122 157.898 12.1455L155.903 5.8291C155.873 5.73489 155.821 5.64897 155.751 5.5791Z" fill="#99D210"/>
<path d="M159.621 0.113281C160.11 0.113677 160.542 0.431862 160.688 0.898438L166.346 19.0947L166.349 19.1035L166.351 19.1113C166.609 20.0586 165.896 20.9929 164.914 20.9932H160.075C159.585 20.993 159.152 20.6708 159.011 20.2012L158.555 18.6807C158.512 18.5393 158.441 18.408 158.345 18.2959C158.144 18.0613 157.849 17.9259 157.54 17.9258H147.579C147.156 17.926 146.754 18.1173 146.488 18.4463L145.128 20.126L145.123 20.1318C144.668 20.6772 143.994 20.993 143.284 20.9932H138.151C137.55 20.9926 137.213 20.3004 137.583 19.8271L152.655 0.573242C152.883 0.2833 153.231 0.113532 153.6 0.113281H159.621ZM155.751 5.5791C155.487 5.31524 155.051 5.34533 154.825 5.64258L149.761 12.3232C149.459 12.7219 149.638 13.2998 150.113 13.458C150.187 13.4827 150.265 13.4951 150.343 13.4951H156.908C157.403 13.4948 157.829 13.146 157.926 12.6611C157.96 12.4897 157.95 12.3122 157.898 12.1455L155.903 5.8291C155.873 5.73489 155.821 5.64897 155.751 5.5791Z" fill="#99D210"/>
<path d="M159.621 0.113281C160.11 0.113677 160.542 0.431862 160.688 0.898438L166.346 19.0947L166.349 19.1035L166.351 19.1113C166.609 20.0586 165.896 20.9929 164.914 20.9932H160.075C159.585 20.993 159.152 20.6708 159.011 20.2012L158.555 18.6807C158.512 18.5393 158.441 18.408 158.345 18.2959C158.144 18.0613 157.849 17.9259 157.54 17.9258H147.579C147.156 17.926 146.754 18.1173 146.488 18.4463L145.128 20.126L145.123 20.1318C144.668 20.6772 143.994 20.993 143.284 20.9932H138.151C137.55 20.9926 137.213 20.3004 137.583 19.8271L152.655 0.573242C152.883 0.2833 153.231 0.113532 153.6 0.113281H159.621ZM155.751 5.5791C155.487 5.31524 155.051 5.34533 154.825 5.64258L149.761 12.3232C149.459 12.7219 149.638 13.2998 150.113 13.458C150.187 13.4827 150.265 13.4951 150.343 13.4951H156.908C157.403 13.4948 157.829 13.146 157.926 12.6611C157.96 12.4897 157.95 12.3122 157.898 12.1455L155.903 5.8291C155.873 5.73489 155.821 5.64897 155.751 5.5791Z" fill="#99D210"/>
<path d="M268.675 0.227539C269.164 0.227728 269.596 0.54582 269.741 1.0127L275.399 19.209L275.402 19.2178L275.404 19.2256C275.662 20.1729 274.949 21.1074 273.968 21.1074H269.129C268.638 21.1073 268.205 20.785 268.064 20.3154L267.608 18.7949C267.566 18.6535 267.494 18.5223 267.398 18.4102C267.197 18.1753 266.903 18.04 266.594 18.04H256.633C256.209 18.0402 255.807 18.2313 255.541 18.5605L254.181 20.2402L254.177 20.2461C253.722 20.7914 253.048 21.1074 252.338 21.1074H247.204C246.603 21.1069 246.266 20.4147 246.636 19.9414L261.709 0.6875C261.936 0.39727 262.285 0.227754 262.653 0.227539H268.675ZM264.804 5.69336C264.541 5.42943 264.104 5.45938 263.879 5.75684L258.814 12.4375C258.512 12.8361 258.691 13.414 259.166 13.5723C259.24 13.597 259.318 13.6093 259.396 13.6094H265.962C266.456 13.6092 266.882 13.2601 266.979 12.7754C267.014 12.604 267.003 12.4264 266.951 12.2598L264.956 5.94336C264.926 5.84912 264.874 5.76325 264.804 5.69336Z" fill="#99D210"/>
<path d="M268.675 0.227539C269.164 0.227728 269.596 0.54582 269.741 1.0127L275.399 19.209L275.402 19.2178L275.404 19.2256C275.662 20.1729 274.949 21.1074 273.968 21.1074H269.129C268.638 21.1073 268.205 20.785 268.064 20.3154L267.608 18.7949C267.566 18.6535 267.494 18.5223 267.398 18.4102C267.197 18.1753 266.903 18.04 266.594 18.04H256.633C256.209 18.0402 255.807 18.2313 255.541 18.5605L254.181 20.2402L254.177 20.2461C253.722 20.7914 253.048 21.1074 252.338 21.1074H247.204C246.603 21.1069 246.266 20.4147 246.636 19.9414L261.709 0.6875C261.936 0.39727 262.285 0.227754 262.653 0.227539H268.675ZM264.804 5.69336C264.541 5.42943 264.104 5.45938 263.879 5.75684L258.814 12.4375C258.512 12.8361 258.691 13.414 259.166 13.5723C259.24 13.597 259.318 13.6093 259.396 13.6094H265.962C266.456 13.6092 266.882 13.2601 266.979 12.7754C267.014 12.604 267.003 12.4264 266.951 12.2598L264.956 5.94336C264.926 5.84912 264.874 5.76325 264.804 5.69336Z" fill="#99D210"/>
<path d="M268.675 0.227539C269.164 0.227728 269.596 0.54582 269.741 1.0127L275.399 19.209L275.402 19.2178L275.404 19.2256C275.662 20.1729 274.949 21.1074 273.968 21.1074H269.129C268.638 21.1073 268.205 20.785 268.064 20.3154L267.608 18.7949C267.566 18.6535 267.494 18.5223 267.398 18.4102C267.197 18.1753 266.903 18.04 266.594 18.04H256.633C256.209 18.0402 255.807 18.2313 255.541 18.5605L254.181 20.2402L254.177 20.2461C253.722 20.7914 253.048 21.1074 252.338 21.1074H247.204C246.603 21.1069 246.266 20.4147 246.636 19.9414L261.709 0.6875C261.936 0.39727 262.285 0.227754 262.653 0.227539H268.675ZM264.804 5.69336C264.541 5.42943 264.104 5.45938 263.879 5.75684L258.814 12.4375C258.512 12.8361 258.691 13.414 259.166 13.5723C259.24 13.597 259.318 13.6093 259.396 13.6094H265.962C266.456 13.6092 266.882 13.2601 266.979 12.7754C267.014 12.604 267.003 12.4264 266.951 12.2598L264.956 5.94336C264.926 5.84912 264.874 5.76325 264.804 5.69336Z" fill="#99D210"/>
<path d="M174.455 20.0684L179.428 5.25931C179.471 5.13063 179.592 5.04393 179.727 5.04393H180.182H181.545H187.631C187.889 5.04393 188.145 5.08156 188.392 5.15565L188.798 5.27744C189.032 5.34741 189.239 5.48446 189.395 5.67152C189.606 5.9243 189.707 6.2504 189.677 6.57809L189.64 6.99031C189.62 7.20621 189.57 7.41812 189.489 7.61941L189.384 7.88112C189.233 8.25939 189.025 8.6123 188.767 8.92761L188.653 9.06627C188.312 9.48329 187.873 9.80984 187.376 10.0171C186.976 10.1837 186.547 10.2694 186.114 10.2694H179.727C179.456 10.2694 179.215 10.4431 179.129 10.7005L177.811 14.6546C177.801 14.6845 177.796 14.7158 177.796 14.7473C177.796 14.9093 177.928 15.0405 178.089 15.0405H182.117C182.19 15.0405 182.262 15.0494 182.333 15.067C182.556 15.1229 182.749 15.2635 182.871 15.4591L185.754 20.0924C185.825 20.2072 185.917 20.3076 186.025 20.3887C186.214 20.5303 186.444 20.6068 186.68 20.6068H192.74C192.773 20.6068 192.804 20.5937 192.828 20.5703C192.872 20.5262 192.876 20.4562 192.839 20.4066L188.212 14.3477C188.161 14.2813 188.134 14.2001 188.134 14.1165C188.134 13.929 188.27 13.7694 188.455 13.7402L189.996 13.4969C190.192 13.4659 190.384 13.4084 190.565 13.3261L191.944 12.6993C192.506 12.4437 193.032 12.1138 193.506 11.7183C193.937 11.3596 194.322 10.9497 194.653 10.4978L194.768 10.3417C195.19 9.76571 195.538 9.13864 195.803 8.47542L196.085 7.77027L196.313 7.13194C196.538 6.50194 196.653 5.83795 196.653 5.16898V4.44924C196.653 3.94498 196.527 3.44879 196.285 3.0061C196.079 2.62724 195.793 2.29718 195.448 2.03824L195.168 1.82858C194.797 1.55031 194.387 1.32947 193.95 1.17348L193.867 1.14391C193.305 0.943335 192.714 0.840809 192.117 0.840809H174.729C174.458 0.840809 174.217 1.01464 174.132 1.27214L167.913 20.0388C167.804 20.3109 168.005 20.6068 168.298 20.6068H173.707C174.046 20.6068 174.347 20.3901 174.455 20.0684Z" fill="#99D210" stroke="#99D210"/>
<path d="M223.262 4.49808L224.38 1.05136C224.432 0.891318 224.312 0.727192 224.144 0.727192H202.901C202.63 0.727192 202.389 0.900452 202.302 1.15776L195.858 20.266C195.802 20.4337 195.927 20.6068 196.104 20.6068H217.783C217.986 20.6068 218.166 20.4758 218.228 20.2826L219.373 16.7445C219.432 16.4506 219.207 16.1765 218.907 16.1765H204.202C204.168 16.1765 204.134 16.1723 204.102 16.1641C203.878 16.1084 203.744 15.8814 203.801 15.6588L204.467 13.0908C204.483 13.0279 204.51 12.9681 204.546 12.9141C204.654 12.7522 204.836 12.655 205.03 12.655H219.413C219.457 12.655 219.496 12.6267 219.509 12.585L220.712 8.86626C220.728 8.81748 220.736 8.76652 220.736 8.71525C220.736 8.44429 220.517 8.22464 220.246 8.22464H206.764C206.478 8.22464 206.272 7.95239 206.349 7.67769L206.949 5.53381C206.977 5.43526 207.022 5.3427 207.084 5.26083C207.24 5.05276 207.485 4.93031 207.745 4.93031H222.667C222.938 4.93031 223.178 4.75578 223.262 4.49808Z" fill="#99D210" stroke="#99D210"/>
<path d="M180.863 26.6275H178.137C178.012 26.6275 177.91 26.7292 177.91 26.8547V36.2833C177.91 36.4088 178.012 36.5105 178.137 36.5105H186.543C186.731 36.5105 186.884 36.3579 186.884 36.1697V34.8065C186.884 34.5556 186.681 34.3521 186.43 34.3521H181.318C181.192 34.3521 181.091 34.2504 181.091 34.1249V26.8547C181.091 26.7292 180.989 26.6275 180.863 26.6275Z" fill="white" stroke="white"/>
<path d="M155.304 26.6275H157.803C157.866 26.6275 157.917 26.6783 157.917 26.7411V31.861C157.917 32.1555 157.976 32.4469 158.092 32.7176C158.201 32.9719 158.358 33.203 158.554 33.3987L158.76 33.605C158.954 33.7989 159.178 33.9602 159.423 34.0828C159.777 34.2599 160.168 34.3521 160.563 34.3521H160.932C161.268 34.3521 161.603 34.3109 161.929 34.2294L162.347 34.1249L162.389 34.111C162.807 33.9715 163.182 33.7191 163.469 33.384C163.628 33.198 163.759 32.988 163.856 32.7629C163.984 32.4623 164.051 32.1387 164.051 31.8118V26.8547C164.051 26.7292 164.153 26.6275 164.278 26.6275H167.004C167.13 26.6275 167.232 26.7292 167.232 26.8547V32.2666C167.232 32.5954 167.191 32.9231 167.112 33.2422C167.04 33.5269 166.938 33.803 166.807 34.0655L166.773 34.133C166.625 34.4297 166.446 34.7099 166.238 34.969L165.953 35.3259C165.746 35.5845 165.507 35.8158 165.242 36.0145C164.905 36.2677 164.528 36.4649 164.128 36.5984L163.369 36.8513C162.614 37.0024 161.845 37.0785 161.075 37.0785H160.487C160.137 37.0785 159.788 37.0517 159.442 36.9985L159.402 36.9924C158.793 36.8988 158.201 36.7203 157.642 36.4623L157.362 36.3333C157.127 36.2245 156.903 36.0912 156.695 35.9354C156.302 35.6402 155.971 35.2691 155.723 34.8441L155.614 34.6559C155.408 34.304 155.259 33.9225 155.171 33.5249C155.108 33.2442 155.077 32.9575 155.077 32.6699V26.8547C155.077 26.7292 155.178 26.6275 155.304 26.6275Z" fill="white" stroke="white"/>
<path d="M134.629 26.6275V29.8082C134.629 29.8709 134.68 29.9218 134.743 29.9218H140.423C140.548 29.9218 140.65 29.8201 140.65 29.6946V26.8547C140.65 26.7292 140.751 26.6275 140.877 26.6275H143.376C143.502 26.6275 143.603 26.7292 143.603 26.8547V36.3969C143.603 36.5224 143.502 36.6241 143.376 36.6241H140.877C140.814 36.6241 140.763 36.5732 140.763 36.5105V32.8753V32.7618C140.763 32.6363 140.662 32.5346 140.536 32.5346H134.629C134.566 32.5346 134.515 32.5854 134.515 32.6482V36.2833V36.5105C134.515 36.5732 134.465 36.6241 134.402 36.6241H131.789C131.664 36.6241 131.562 36.5224 131.562 36.3969V26.6275C131.562 26.502 131.664 26.4003 131.789 26.4003H134.402C134.527 26.4003 134.629 26.502 134.629 26.6275Z" fill="white" stroke="white"/>
<path d="M117.021 26.0142C117.493 26.0143 117.922 26.2894 118.119 26.7183L122.474 36.188L122.485 36.2134L122.494 36.2388C122.658 36.7302 122.291 37.2378 121.773 37.2378H119.775C118.942 37.2377 118.181 36.7669 117.808 36.022L117.609 35.6246C117.487 35.4275 117.272 35.3072 117.04 35.3072H112.597L112.095 36.6451C112.031 36.8138 111.932 36.9678 111.805 37.0953C111.568 37.3319 111.246 37.4654 110.911 37.4654H108.761C108.279 37.4649 107.888 37.0733 107.888 36.5914C107.888 36.4669 107.914 36.3433 107.966 36.23L112.43 26.4107L112.476 26.3248C112.6 26.1333 112.813 26.0144 113.045 26.0142H117.021ZM115.488 28.3687C115.21 28.1527 114.802 28.2246 114.614 28.522L114.577 28.5894L113.03 31.8892C112.83 32.3165 113.142 32.8072 113.614 32.8072H116.454C116.855 32.8068 117.18 32.4818 117.181 32.0806V32.0289C117.181 31.9157 117.156 31.8034 117.108 31.7007L115.665 28.5914L115.613 28.5005L115.545 28.4195L115.488 28.3687Z" fill="white"/>
<path d="M96.8011 28.3051V29.6946C96.8011 29.8828 96.6485 30.0354 96.4603 30.0354H95.1941C95.0778 30.0354 94.9835 29.9411 94.9835 29.8248C94.9835 29.745 94.9384 29.6721 94.8671 29.6364L94.4498 29.4278C94.3519 29.3788 94.2464 29.3469 94.1378 29.3333L93.3931 29.2402H91.1845C90.7705 29.2402 90.3633 29.3457 90.0013 29.5468C89.6914 29.719 89.4228 29.9568 89.2142 30.2435L89.0511 30.4678C88.7722 30.8512 88.622 31.3132 88.622 31.7873C88.622 32.3415 88.8272 32.8761 89.1979 33.288L89.2163 33.3084C89.4964 33.6197 89.8558 33.8492 90.2561 33.9723L90.6009 34.0784C90.9458 34.1846 91.3046 34.2385 91.6655 34.2385H92.9637C93.0976 34.2385 93.2307 34.2169 93.3578 34.1746L93.6541 34.0758C93.778 34.0345 93.8803 33.9457 93.9387 33.829C94.0221 33.6622 94.1925 33.5569 94.3789 33.5569H96.3467C96.6604 33.5569 96.9147 33.8112 96.9147 34.1249V34.9113C96.9147 35.4069 96.6439 35.8629 96.2088 36.1003L95.843 36.2998C95.7247 36.3644 95.6003 36.4171 95.4717 36.4573L94.9519 36.6197C94.2199 36.8485 93.4574 36.9649 92.6904 36.9649H90.4086C89.9025 36.9649 89.3996 36.8833 88.9194 36.7232C88.2744 36.5082 87.6836 36.1561 87.1876 35.6911L86.84 35.3652C86.3677 34.9224 85.9983 34.3814 85.7578 33.7802C85.5487 33.2575 85.4413 32.6997 85.4413 32.1367V31.7968C85.4413 31.01 85.6064 30.2319 85.926 29.5128L85.9782 29.3953C86.224 28.8423 86.5695 28.3391 86.9975 27.9112C87.4697 27.4389 88.033 27.0676 88.653 26.8195L88.8492 26.7411C89.6759 26.4404 90.5488 26.2867 91.4284 26.2867H92.2292C92.8513 26.2867 93.4711 26.363 94.0747 26.5139L95.9639 27.1436C96.0672 27.178 96.1653 27.226 96.2559 27.2864C96.5965 27.5135 96.8011 27.8957 96.8011 28.3051Z" fill="white" stroke="white"/>
<path d="M198.728 31.6154L198.232 32.0009C198.168 32.0509 198.13 32.1278 198.13 32.2092C198.13 32.3329 198.216 32.4401 198.337 32.4669L199.023 32.6193C199.109 32.6385 199.197 32.6475 199.286 32.6463L240.616 32.0802C240.842 32.0802 240.914 31.775 240.712 31.6737L240.663 31.6493C240.632 31.6338 240.598 31.6256 240.563 31.6253L199.691 31.2894C199.342 31.2865 199.003 31.4014 198.728 31.6154Z" fill="#99D210" stroke="#99D210"/>
<path d="M77.8006 30.5931L78.2963 30.9786C78.3606 31.0286 78.3982 31.1055 78.3982 31.1869C78.3982 31.3106 78.3123 31.4177 78.1915 31.4445L77.5057 31.597C77.4194 31.6161 77.3312 31.6252 77.2428 31.624L35.9126 31.0578C35.6862 31.0578 35.6142 30.7526 35.8167 30.6514L35.8655 30.627C35.8965 30.6115 35.9307 30.6033 35.9653 30.603L76.8376 30.2671C77.1862 30.2642 77.5255 30.3791 77.8006 30.5931Z" fill="#99D210" stroke="#99D210"/>
</svg>
