<svg width="34" height="34" viewBox="0 0 34 34" fill="none" xmlns="http://www.w3.org/2000/svg">
<path d="M32.4144 26.7782C32.4144 27.3356 32.2905 27.9085 32.0273 28.466C31.764 29.0234 31.4234 29.5499 30.9743 30.0454C30.2155 30.8816 29.3794 31.4855 28.4348 31.8727C27.5057 32.2598 26.4992 32.4611 25.4152 32.4611C23.8358 32.4611 22.1479 32.0894 20.3672 31.3307C18.5864 30.5719 16.8057 29.5499 15.0404 28.2647C13.2597 26.964 11.5718 25.5239 9.9614 23.9289C8.36647 22.3185 6.92638 20.6307 5.64114 18.8654C4.37139 17.1001 3.34939 15.3349 2.60612 13.5851C1.86285 11.8198 1.49121 10.132 1.49121 8.52156C1.49121 7.46859 1.67703 6.46208 2.04866 5.53299C2.4203 4.58842 3.00872 3.72127 3.82942 2.94703C4.82045 1.97148 5.90438 1.49146 7.05026 1.49146C7.48383 1.49146 7.91741 1.58436 8.30453 1.77018C8.70713 1.956 9.06328 2.23473 9.34201 2.63733L12.9345 7.70086C13.2132 8.08798 13.4145 8.44414 13.5539 8.7848C13.6932 9.10998 13.7707 9.43516 13.7707 9.72937C13.7707 10.101 13.6623 10.4726 13.4455 10.8288C13.2442 11.1849 12.95 11.5566 12.5783 11.9282L11.4015 13.1515C11.2312 13.3219 11.1537 13.5232 11.1537 13.7709C11.1537 13.8948 11.1692 14.0032 11.2002 14.1271C11.2466 14.2509 11.2931 14.3438 11.3241 14.4368C11.6028 14.9478 12.0828 15.6136 12.7642 16.4188C13.461 17.224 14.2042 18.0447 15.0095 18.8654C15.8456 19.6861 16.6508 20.4449 17.4715 21.1417C18.2767 21.823 18.9426 22.2876 19.4691 22.5663C19.5465 22.5973 19.6394 22.6437 19.7478 22.6902C19.8717 22.7366 19.9956 22.7521 20.1349 22.7521C20.3982 22.7521 20.5995 22.6592 20.7698 22.4889L21.9466 21.3275C22.3338 20.9404 22.7054 20.6462 23.0616 20.4603C23.4177 20.2436 23.7739 20.1352 24.161 20.1352C24.4552 20.1352 24.7649 20.1971 25.1055 20.3365C25.4462 20.4758 25.8024 20.6771 26.1895 20.9404L31.315 24.5793C31.7176 24.858 31.9963 25.1832 32.1666 25.5703C32.3215 25.9575 32.4144 26.3446 32.4144 26.7782Z" stroke="white" stroke-width="1.2" stroke-miterlimit="10"/>
<path d="M27.0418 12.3309C27.0418 11.4018 26.314 9.97719 25.23 8.81583C24.239 7.74737 22.9228 6.91119 21.6221 6.91119" stroke="white" stroke-width="1.2" stroke-linecap="round" stroke-linejoin="round"/>
<path d="M32.4614 12.3308C32.4614 6.3382 27.6147 1.49146 21.6221 1.49146" stroke="white" stroke-width="1.2" stroke-linecap="round" stroke-linejoin="round"/>
</svg>
